<?xml version="1.0" encoding="UTF-8"?>
<svg version="1.1" xmlns="http://www.w3.org/2000/svg" width="384" height="366">
<path d="M0 0 C1.23880496 -0.00623996 2.47760991 -0.01247993 3.75395441 -0.01890898 C7.16704641 -0.03203874 10.57924928 -0.02740194 13.99228597 -0.0149641 C17.68289089 -0.00587513 21.37342083 -0.01990231 25.06401062 -0.03088379 C32.28375259 -0.04863275 39.50332783 -0.04484526 46.72307622 -0.03323323 C52.59280789 -0.02418487 58.46249297 -0.02298096 64.33222961 -0.02732849 C65.58726811 -0.02824789 65.58726811 -0.02824789 66.86766091 -0.02918586 C68.56759927 -0.03046481 70.26753762 -0.03176167 71.96747595 -0.03307623 C87.89274701 -0.04447141 103.81792584 -0.03138501 119.74318177 -0.00987476 C133.39585062 0.00799526 147.04838341 0.00489086 160.7010498 -0.0135498 C176.57089841 -0.0349753 192.44066627 -0.04337287 208.31052732 -0.03110075 C210.00407122 -0.02982661 211.69761513 -0.02856912 213.39115906 -0.02732849 C214.22432747 -0.02671139 215.05749588 -0.02609429 215.91591182 -0.02545848 C221.77585492 -0.02201062 227.63574663 -0.02782176 233.49568176 -0.0372467 C240.6409395 -0.04848675 247.78602156 -0.04538463 254.93125927 -0.02412373 C258.57409525 -0.01364015 262.21663873 -0.00944507 265.85947227 -0.02272034 C269.81427503 -0.03691409 273.76860303 -0.01992058 277.72338867 0 C278.86639639 -0.00892289 280.00940412 -0.01784577 281.18704844 -0.02703905 C290.38597822 0.06270359 298.44534378 1.92500404 305.12675476 8.56756592 C305.60002701 9.06866882 306.07329926 9.56977173 306.56091309 10.08605957 C307.08506302 10.61632751 307.60921295 11.14659546 308.14924622 11.69293213 C309.79730382 13.36756214 311.42299251 15.06210423 313.04919434 16.75793457 C314.14744211 17.87776115 315.24704448 18.99626089 316.34802246 20.11340332 C321.38611342 25.24972264 326.29220177 30.46186107 330.97717285 35.92492676 C332.70808102 37.90397959 334.5691479 39.71073624 336.48669434 41.50793457 C344.21435456 49.14573828 347.56780473 56.77188336 347.63850534 67.64279294 C347.63385953 69.25805312 347.63385953 69.25805312 347.62911987 70.90594482 C347.63365099 72.05966103 347.6381821 73.21337724 347.64285052 74.40205455 C347.65330806 77.59588108 347.65482252 80.78956574 347.65246177 83.98340392 C347.65205307 87.43139105 347.66309784 90.87934478 347.6725769 94.32731628 C347.68917688 101.07965775 347.69468601 107.83196429 347.69580166 114.58432445 C347.69675268 120.07466159 347.70086568 125.56498724 347.70720291 131.05532074 C347.72481317 146.6297416 347.73404221 162.20413491 347.73254196 177.77856579 C347.73246205 178.61786589 347.73238214 179.45716598 347.7322998 180.32189941 C347.73221804 181.16222728 347.73213628 182.00255515 347.73205204 182.8683475 C347.73123937 196.48299594 347.75037283 210.09753369 347.77857654 223.71215013 C347.80732354 237.69968975 347.82111581 251.68717542 347.81938899 265.67474532 C347.81872567 273.52440424 347.82419199 281.37394714 347.84574509 289.22357941 C347.8639809 295.90778806 347.86828466 302.5918281 347.85472624 309.2760509 C347.84820838 312.68394792 347.84803595 316.09152172 347.86543274 319.49938774 C347.88088102 323.20054278 347.87157828 326.90085275 347.85617065 330.60198975 C347.86645778 331.66990698 347.87674491 332.73782422 347.88734376 333.83810258 C347.81176303 342.07207774 346.06116937 348.84233163 341.13513184 355.53137207 C340.34364746 356.3073877 339.55216309 357.08340332 338.73669434 357.88293457 C337.96067871 358.67441895 337.18466309 359.46590332 336.38513184 360.28137207 C327.97885603 366.4720403 319.65788599 367.08736476 309.47058105 367.01586914 C308.08313787 367.02048549 306.69569958 367.02684331 305.30827141 367.03477812 C301.51910737 367.0513941 297.73034906 367.04326068 293.94118404 367.03083324 C289.84567019 367.02175317 285.75022431 367.03576709 281.65472412 367.04675293 C273.64089304 367.06451128 265.62721207 367.06071016 257.61337519 367.04910237 C251.0986219 367.04005773 244.5839106 367.0388485 238.06915283 367.04319763 C237.14087358 367.04381056 236.21259434 367.0444235 235.25618541 367.045055 C233.37022605 367.04633394 231.48426671 367.0476308 229.59830737 367.04894537 C211.92618079 367.0603433 194.25413729 367.04724981 176.58202434 367.0257439 C161.42846128 367.00787364 146.27502081 367.01097797 131.12145996 367.02941895 C113.51126908 367.05083956 95.90115096 367.05924474 78.29094887 367.04696989 C76.41204454 367.04569573 74.53314019 367.04443825 72.65423584 367.04319763 C71.72985179 367.04258053 70.80546774 367.04196343 69.85307205 367.04132763 C63.34842101 367.0378783 56.84381624 367.04369407 50.33917236 367.05311584 C42.40889821 367.06435044 34.47878237 367.06126512 26.54852629 367.03999287 C22.50469726 367.02950206 18.46113189 367.02532682 14.41730499 367.03858948 C10.71121637 367.05056035 7.00563435 367.0438744 3.2995913 367.02267927 C1.33307787 367.01613622 -0.63347108 367.02910725 -2.59994698 367.04290819 C-11.42845512 366.96514021 -18.46767133 365.57933195 -25.66174316 360.28137207 C-26.43775879 359.4898877 -27.21377441 358.69840332 -28.01330566 357.88293457 C-29.20053223 356.71891113 -29.20053223 356.71891113 -30.41174316 355.53137207 C-36.44369506 347.34061633 -37.22002654 339.23471299 -37.14624023 329.3001709 C-37.1524802 328.00011266 -37.15872016 326.70005442 -37.16514921 325.36060047 C-37.18175414 321.77665689 -37.17363697 318.19314265 -37.16120434 314.60919809 C-37.15211964 310.73454373 -37.16614045 306.85996098 -37.17712402 302.98532104 C-37.19487749 295.40462962 -37.19108346 287.82409693 -37.17947346 280.24339938 C-37.17042689 274.08047611 -37.16922042 267.9175972 -37.17356873 261.75466919 C-37.17418166 260.87634644 -37.17479459 259.9980237 -37.1754261 259.09308511 C-37.17670504 257.30859175 -37.1780019 255.5240984 -37.17931646 253.73960507 C-37.19071297 237.02030886 -37.17762316 220.3011005 -37.156115 203.5818187 C-37.13824486 189.24692533 -37.14134922 174.91216154 -37.15979004 160.57727051 C-37.18121319 143.91635729 -37.18961442 127.25552098 -37.17734098 110.59459591 C-37.17606684 108.81679727 -37.17480935 107.03899862 -37.17356873 105.26119995 C-37.17295162 104.38656988 -37.17233452 103.51193982 -37.17169872 102.61080581 C-37.16825015 96.4578137 -37.17406351 90.30487052 -37.18348694 84.15188599 C-37.19472436 76.64980277 -37.19163032 69.14788689 -37.17036396 61.64582276 C-37.15987691 57.82071747 -37.15569137 53.99589082 -37.16896057 50.17078781 C-37.18314535 46.01885043 -37.16616841 41.86761197 -37.14624023 37.71569824 C-37.15516312 36.5143263 -37.16408601 35.31295435 -37.17327929 34.07517719 C-37.09304973 25.44948486 -35.58374719 18.50753411 -30.41174316 11.48449707 C-29.62025879 10.70848145 -28.82877441 9.93246582 -28.01330566 9.13293457 C-27.23729004 8.3414502 -26.46127441 7.54996582 -25.66174316 6.73449707 C-17.65494219 0.83801574 -9.71950831 -0.07587532 0 0 Z M-27.45080566 13.38293457 C-34.55744509 23.53527661 -34.78842853 32.7356328 -34.77201843 44.86103821 C-34.77428399 46.0933452 -34.77654955 47.32565218 -34.77888376 48.59530181 C-34.78410362 51.99928311 -34.78487127 55.40321141 -34.78368938 58.80719292 C-34.78348471 62.48487417 -34.78901043 66.16254763 -34.79374695 69.84022522 C-34.8020395 77.03913499 -34.80480115 84.23803657 -34.80535933 91.43695072 C-34.80583512 97.29049994 -34.80789303 103.14404647 -34.81105995 108.99759483 C-34.81986248 125.6065423 -34.82447992 142.21548331 -34.82372948 158.82443313 C-34.82368952 159.71909261 -34.82364957 160.61375209 -34.8236084 161.53552246 C-34.82356752 162.4312787 -34.82352664 163.32703493 -34.82348452 164.24993529 C-34.82307809 178.76582504 -34.83264778 193.28168885 -34.84674677 207.7975711 C-34.86112121 222.71517303 -34.86801637 237.63276232 -34.86715299 252.55037135 C-34.8668214 260.9203445 -34.86955167 269.29029044 -34.88033104 277.66025734 C-34.88945007 284.78645095 -34.89159975 291.91260502 -34.88482162 299.03880195 C-34.88156358 302.67155097 -34.88147376 306.30422419 -34.89017487 309.93696594 C-34.89952797 313.88263877 -34.8932452 317.82820174 -34.88554382 321.77388 C-34.89068739 322.91144818 -34.89583095 324.04901635 -34.90113038 325.22105628 C-34.84934186 337.25888436 -33.70217095 347.0431472 -25.19299316 356.03527832 C-15.29582247 364.93191536 -4.21561999 364.65773376 8.39814758 364.64164734 C9.70395851 364.6439129 11.00976944 364.64617845 12.3551504 364.64851266 C15.96434886 364.65460804 19.57352408 364.65449974 23.1827265 364.65331829 C27.08126849 364.65311371 30.97980313 364.65863846 34.87834167 364.66337585 C42.5103938 364.6716704 50.14243819 364.67443015 57.77449445 364.67498823 C63.97987432 364.67546393 70.18525165 364.67752137 76.39063072 364.68068886 C93.99565362 364.68949193 111.60067043 364.69410874 129.20569555 364.69335838 C130.62833365 364.69329845 130.62833365 364.69329845 132.07971191 364.6932373 C133.02929921 364.69319642 133.97888651 364.69315554 134.95724919 364.69311342 C150.34611938 364.69270698 165.7349651 364.70227692 181.12382821 364.71637567 C196.93639986 364.73074797 212.74895958 364.73764539 228.56153792 364.7367819 C237.43453263 364.73645024 246.30750168 364.73918376 255.18049049 364.74995995 C262.7348777 364.75907614 270.28922762 364.76123098 277.84361795 364.75445052 C281.69509419 364.75119106 285.54649891 364.75110786 289.39796829 364.75980377 C293.58012939 364.76914892 297.76212573 364.76287784 301.94429016 364.75517273 C303.1518954 364.76031629 304.35950064 364.76545986 305.60369998 364.77075928 C317.81813655 364.72112249 327.75225192 363.7086857 336.88903809 355.06262207 C345.28110027 345.72677174 345.51373519 335.4157486 345.4954071 323.47683716 C345.49767266 322.38674894 345.49993822 321.29666072 345.50227243 320.17353952 C345.50858722 316.53190122 345.50778468 312.89030038 345.50695801 309.24865723 C345.50995104 306.63319348 345.5133539 304.01773018 345.51713562 301.40226746 C345.52542332 295.04190389 345.52818959 288.68154959 345.528748 282.32118107 C345.52922398 277.14935472 345.53128283 271.97753141 345.53444862 266.80570602 C345.54324948 252.12850621 345.5478688 237.4513137 345.54711815 222.77411123 C345.54707819 221.98373387 345.54703824 221.19335651 345.54699707 220.37902832 C345.54695619 219.58768129 345.54691531 218.79633427 345.54687319 217.98100702 C345.54646671 205.15543691 345.55603814 192.32989615 345.57013544 179.50433452 C345.58451085 166.32130621 345.591405 153.13829221 345.59054166 139.95525587 C345.59021013 132.55949944 345.59293804 125.1637738 345.60371971 117.76802444 C345.61379489 110.81261196 345.61347748 103.85726546 345.60620308 96.90184975 C345.60515772 94.35175163 345.60751722 91.80164946 345.61356354 89.2515583 C345.62129307 85.76529572 345.6166321 82.27925711 345.6089325 78.79299927 C345.61664784 77.28655253 345.61664784 77.28655253 345.62451905 75.74967253 C345.5372932 57.82493134 339.249011 48.28227321 326.73669434 35.88293457 C326.17724121 35.33379395 325.61778809 34.78465332 325.04138184 34.21887207 C322.61104966 31.74332441 320.3787483 29.1082724 318.11560059 26.48059082 C315.86264146 23.94663902 313.46225208 21.59088901 311.03356934 19.22668457 C309.39898635 17.54627215 307.99064238 15.79178375 306.54919434 13.94543457 C300.34399962 6.6374599 292.58371956 3.85332443 283.36169434 2.50793457 C279.33824273 2.24307254 275.33068694 2.23737576 271.29957581 2.25396729 C270.1227297 2.2508473 268.9458836 2.24772732 267.73337549 2.2445128 C264.49350057 2.23795205 261.25377753 2.24026407 258.0139066 2.24648523 C254.50940051 2.25103211 251.0049141 2.24401489 247.50041199 2.23852539 C240.6453364 2.22965323 233.79030473 2.23154375 226.93522746 2.23735067 C221.36109055 2.24187611 215.7869659 2.24247625 210.21282768 2.24030304 C209.4180545 2.23999657 208.62328131 2.23969011 207.80442409 2.23937435 C206.18960647 2.23873487 204.57478885 2.23808644 202.95997124 2.23742917 C187.83349203 2.23173216 172.7070371 2.2382737 157.58056187 2.2490299 C144.61672473 2.25796312 131.65292341 2.25641405 118.68908691 2.24719238 C103.61653712 2.23647565 88.54400859 2.23228324 73.47145551 2.23841691 C71.86242926 2.23905397 70.25340301 2.23968272 68.64437675 2.24030304 C67.45702768 2.24076587 67.45702768 2.24076587 66.24569177 2.24123804 C60.68228867 2.2429609 55.11889912 2.24005867 49.55549812 2.23534393 C42.76970746 2.22971942 35.98396304 2.23128439 29.19817764 2.24190542 C25.73958946 2.24714133 22.28107821 2.24925464 18.82249069 2.24260712 C15.0651831 2.2371242 11.30809049 2.24401937 7.55079651 2.25396729 C6.46906585 2.24950584 5.3873352 2.2450444 4.27282482 2.24044776 C-8.19052827 2.30424127 -18.77168493 3.72774251 -27.45080566 13.38293457 Z " fill="#F7B5A4" transform="translate(36.6383056640625,-0.5079345703125)"/>
<path d="M0 0 C0.33 0 0.66 0 1 0 C1.09359212 18.21136786 1.16405191 36.42267298 1.20724869 54.63422966 C1.22784207 63.09087049 1.25590068 71.54736156 1.30175781 80.00390625 C1.34172468 87.37776135 1.36745624 94.75150796 1.37635398 102.12546837 C1.38155214 106.02714039 1.39370163 109.9285021 1.42292023 113.83007431 C1.4502455 117.50893733 1.45841088 121.18736479 1.45243073 124.86631966 C1.45404097 126.84685472 1.47547367 128.8273433 1.49768066 130.80775452 C1.45687427 139.71419751 0.118437 146.76549081 -5.2265625 154.0234375 C-6.01804687 154.79945313 -6.80953125 155.57546875 -7.625 156.375 C-8.78902344 157.56222656 -8.78902344 157.56222656 -9.9765625 158.7734375 C-18.38283831 164.96410573 -26.70380835 165.57943019 -36.89111328 165.50793457 C-38.27855647 165.51255092 -39.66599475 165.51890874 -41.05342293 165.52684355 C-44.84258696 165.54345953 -48.63134527 165.53532611 -52.42051029 165.52289867 C-56.51602414 165.5138186 -60.61147003 165.52783252 -64.70697021 165.53881836 C-72.72080129 165.55657671 -80.73448226 165.55277559 -88.74831915 165.5411678 C-95.26307243 165.53212316 -101.77778374 165.53091393 -108.2925415 165.53526306 C-109.22082075 165.53587599 -110.1491 165.53648893 -111.10550892 165.53712043 C-112.99146828 165.53839937 -114.87742763 165.53969623 -116.76338696 165.5410108 C-134.43551355 165.55240873 -152.10755705 165.53931524 -169.77967 165.51780933 C-184.93323306 165.49993907 -200.08667353 165.50304339 -215.24023438 165.52148438 C-232.85042526 165.54290499 -250.46054338 165.55131017 -268.07074547 165.53903532 C-269.9496498 165.53776116 -271.82855414 165.53650368 -273.7074585 165.53526306 C-274.63184255 165.53464596 -275.5562266 165.53402886 -276.50862229 165.53339306 C-283.01327333 165.52994373 -289.5178781 165.5357595 -296.02252197 165.54518127 C-303.95279612 165.55641587 -311.88291196 165.55333055 -319.81316805 165.5320583 C-323.85699708 165.52156749 -327.90056244 165.51739225 -331.94438934 165.53065491 C-335.65047797 165.54262578 -339.35605999 165.53593983 -343.06210303 165.5147447 C-345.02861647 165.50820165 -346.99516542 165.52117268 -348.96164131 165.53497362 C-357.79014945 165.45720564 -364.82936567 164.07139738 -372.0234375 158.7734375 C-372.79945313 157.98195313 -373.57546875 157.19046875 -374.375 156.375 C-375.16648437 155.59898437 -375.95796875 154.82296875 -376.7734375 154.0234375 C-382.97393054 145.60382063 -383.57020752 137.30827967 -383.45410156 127.10498047 C-383.45297089 125.73406508 -383.45361122 124.36314727 -383.45587158 122.99223328 C-383.45701112 119.30057766 -383.43362672 115.60945046 -383.40557575 111.91791677 C-383.38043393 108.04891287 -383.37821009 104.17989453 -383.37347412 100.31082153 C-383.36108164 92.99764151 -383.32831106 85.68470296 -383.28807616 78.37162888 C-383.24324177 70.04027169 -383.22134219 61.70890247 -383.20129442 53.37745452 C-383.15957468 36.25149708 -383.0892959 19.12577414 -383 2 C-382.34 2 -381.68 2 -381 2 C-380.99668985 2.66499921 -380.99337971 3.32999842 -380.98996925 4.01514912 C-380.90857012 20.23381024 -380.81642304 36.45237163 -380.71247292 52.67090321 C-380.66245864 60.5142251 -380.61601493 68.35753712 -380.578125 76.20092773 C-380.54507151 83.04124392 -380.50516767 89.88148092 -380.45720994 96.72170943 C-380.43207698 100.33990358 -380.41025762 103.95804609 -380.39665604 107.57630348 C-380.38130277 111.62626044 -380.35064834 115.67596883 -380.31884766 119.72583008 C-380.31668747 120.91122879 -380.31452728 122.0966275 -380.31230164 123.31794739 C-380.19942061 134.6164368 -379.44302377 144.12776717 -372 153 C-362.29809591 162.44659083 -350.71816406 162.14997882 -337.96354675 162.13371277 C-336.00483036 162.1371111 -336.00483036 162.1371111 -334.00654393 162.14057809 C-330.39734548 162.14667347 -326.78817026 162.14656517 -323.17896783 162.14538372 C-319.28042584 162.14517914 -315.3818912 162.15070389 -311.48335266 162.15544128 C-303.85130054 162.16373583 -296.21925614 162.16649558 -288.58719989 162.16705366 C-282.38182002 162.16752936 -276.17644268 162.1695868 -269.97106361 162.17275429 C-252.36604072 162.18155736 -234.7610239 162.18617417 -217.15599879 162.18542381 C-215.73336069 162.18536388 -215.73336069 162.18536388 -214.28198242 162.18530273 C-213.33239512 162.18526185 -212.38280782 162.18522097 -211.40444515 162.18517885 C-196.01557496 162.18477241 -180.62672924 162.19434235 -165.23786613 162.2084411 C-149.42529448 162.2228134 -133.61273476 162.22971082 -117.80015641 162.22884732 C-108.92716171 162.22851567 -100.05419266 162.23124919 -91.18120384 162.24202538 C-83.62681663 162.25114157 -76.07246672 162.25329641 -68.51807638 162.24651595 C-64.66660015 162.24325649 -60.81519543 162.24317329 -56.96372604 162.2518692 C-52.78156494 162.26121435 -48.59956861 162.25494327 -44.41740417 162.24723816 C-43.20979893 162.25238172 -42.00219369 162.25752529 -40.75799435 162.26282471 C-29.42249527 162.21675973 -19.9008262 161.4670111 -11 154 C-1.56938082 144.31449922 -1.85480977 132.72604926 -1.81054688 119.99047852 C-1.79781788 118.01507244 -1.78508854 116.03966636 -1.7723465 114.06426036 C-1.7596591 111.95579982 -1.74931097 109.84733942 -1.73963928 107.73886299 C-1.7193212 103.33986359 -1.6916878 98.94092837 -1.66296387 94.54197693 C-1.59796837 84.420605 -1.542251 74.2991862 -1.48697662 64.17775726 C-1.43614464 54.87883563 -1.38335195 45.57993778 -1.32245111 36.28107589 C-1.29406605 31.90422569 -1.27048563 27.52738345 -1.25052643 23.15048707 C-1.24038593 21.08920559 -1.22800158 19.02795261 -1.21458435 16.96669006 C-1.1982025 14.44863014 -1.185423 11.93054342 -1.17677307 9.41244507 C-1.16842941 8.31196335 -1.16008575 7.21148163 -1.15148926 6.07765198 C-1.14633553 5.11555093 -1.14118179 4.15344988 -1.13587189 3.16219425 C-1 1 -1 1 0 0 Z " fill="#FEFEFF" transform="translate(383,201)"/>
<path d="M0 0 C5.44305294 4.54065206 10.50260354 9.35078389 15.5 14.375 C16.22058594 15.09171875 16.94117188 15.8084375 17.68359375 16.546875 C21.78613819 20.65683815 25.69190247 24.87250625 29.48144531 29.27197266 C31.26132829 31.29737647 33.15828064 33.15671491 35.125 35 C41.44943036 41.28766042 44.63104002 47.17327297 46 56 C45.34 56 44.68 56 44 56 C44 57.65 44 59.3 44 61 C43.67 61 43.34 61 43 61 C42.90203125 60.3709375 42.8040625 59.741875 42.703125 59.09375 C40.27661239 45.2040571 32.52645754 37.37620026 22.6796875 27.7109375 C20.25062981 25.23668803 18.01936972 22.60321416 15.7578125 19.9765625 C13.48968756 17.42618202 11.06968336 15.05566509 8.6328125 12.66796875 C7.06994888 11.07145496 5.65417984 9.42380621 4.25 7.6875 C2.10030272 4.86327508 2.10030272 4.86327508 -1 3 C-0.67 2.01 -0.34 1.02 0 0 Z " fill="#F8B797" transform="translate(338,6)"/>
<path d="M0 0 C0.99 0.33 1.98 0.66 3 1 C1.90423243 4.2873027 1.41029968 4.62510784 -1.25 6.5625 C-6.81660432 11.1784291 -9.88806138 17.48276189 -10.8125 24.625 C-10.9053125 26.295625 -10.9053125 26.295625 -11 28 C-12.94531315 26.39410347 -13.92760129 25.57353357 -14.25 23.01953125 C-13.08786025 12.76001623 -7.3362975 6.84478377 0 0 Z " fill="#FDC586" transform="translate(14,4)"/>
<path d="M0 0 C1.32 0.33 2.64 0.66 4 1 C3.2884375 2.485 3.2884375 2.485 2.5625 4 C0.83186252 7.99189495 0.37884686 11.68114582 0 16 C-1.51171875 14.77734375 -1.51171875 14.77734375 -3 13 C-3.14453125 10.87890625 -3.14453125 10.87890625 -2.8125 8.5625 C-2.71582031 7.80066406 -2.61914062 7.03882813 -2.51953125 6.25390625 C-1.98253244 3.92421968 -1.15422182 2.08519909 0 0 Z " fill="#F9BD90" transform="translate(3,16)"/>
</svg>
