<?xml version="1.0" encoding="UTF-8"?>
<svg version="1.1" xmlns="http://www.w3.org/2000/svg" width="384" height="366">
<path d="M0 0 C1.23880496 -0.00623996 2.47760991 -0.01247993 3.75395441 -0.01890898 C7.16704641 -0.03203874 10.57924928 -0.02740194 13.99228597 -0.0149641 C17.68289089 -0.00587513 21.37342083 -0.01990231 25.06401062 -0.03088379 C32.28375259 -0.04863275 39.50332783 -0.04484526 46.72307622 -0.03323323 C52.59280789 -0.02418487 58.46249297 -0.02298096 64.33222961 -0.02732849 C65.58726811 -0.02824789 65.58726811 -0.02824789 66.86766091 -0.02918586 C68.56759927 -0.03046481 70.26753762 -0.03176167 71.96747595 -0.03307623 C87.89274701 -0.04447141 103.81792584 -0.03138501 119.74318177 -0.00987476 C133.39585062 0.00799526 147.04838341 0.00489086 160.7010498 -0.0135498 C176.57089841 -0.0349753 192.44066627 -0.04337287 208.31052732 -0.03110075 C210.00407122 -0.02982661 211.69761513 -0.02856912 213.39115906 -0.02732849 C214.22432747 -0.02671139 215.05749588 -0.02609429 215.91591182 -0.02545848 C221.77585492 -0.02201062 227.63574663 -0.02782176 233.49568176 -0.0372467 C240.6409395 -0.04848675 247.78602156 -0.04538463 254.93125927 -0.02412373 C258.57409525 -0.01364015 262.21663873 -0.00944507 265.85947227 -0.02272034 C269.81427503 -0.03691409 273.76860303 -0.01992058 277.72338867 0 C278.86639639 -0.00892289 280.00940412 -0.01784577 281.18704844 -0.02703905 C290.38597822 0.06270359 298.44534378 1.92500404 305.12675476 8.56756592 C305.60002701 9.06866882 306.07329926 9.56977173 306.56091309 10.08605957 C307.08506302 10.61632751 307.60921295 11.14659546 308.14924622 11.69293213 C309.79730382 13.36756214 311.42299251 15.06210423 313.04919434 16.75793457 C314.14744211 17.87776115 315.24704448 18.99626089 316.34802246 20.11340332 C321.38611342 25.24972264 326.29220177 30.46186107 330.97717285 35.92492676 C332.70808102 37.90397959 334.5691479 39.71073624 336.48669434 41.50793457 C344.21435456 49.14573828 347.56780473 56.77188336 347.63850534 67.64279294 C347.63385953 69.25805312 347.63385953 69.25805312 347.62911987 70.90594482 C347.63365099 72.05966103 347.6381821 73.21337724 347.64285052 74.40205455 C347.65330806 77.59588108 347.65482252 80.78956574 347.65246177 83.98340392 C347.65205307 87.43139105 347.66309784 90.87934478 347.6725769 94.32731628 C347.68917688 101.07965775 347.69468601 107.83196429 347.69580166 114.58432445 C347.69675268 120.07466159 347.70086568 125.56498724 347.70720291 131.05532074 C347.72481317 146.6297416 347.73404221 162.20413491 347.73254196 177.77856579 C347.73246205 178.61786589 347.73238214 179.45716598 347.7322998 180.32189941 C347.73221804 181.16222728 347.73213628 182.00255515 347.73205204 182.8683475 C347.73123937 196.48299594 347.75037283 210.09753369 347.77857654 223.71215013 C347.80732354 237.69968975 347.82111581 251.68717542 347.81938899 265.67474532 C347.81872567 273.52440424 347.82419199 281.37394714 347.84574509 289.22357941 C347.8639809 295.90778806 347.86828466 302.5918281 347.85472624 309.2760509 C347.84820838 312.68394792 347.84803595 316.09152172 347.86543274 319.49938774 C347.88088102 323.20054278 347.87157828 326.90085275 347.85617065 330.60198975 C347.86645778 331.66990698 347.87674491 332.73782422 347.88734376 333.83810258 C347.81176303 342.07207774 346.06116937 348.84233163 341.13513184 355.53137207 C340.34364746 356.3073877 339.55216309 357.08340332 338.73669434 357.88293457 C337.96067871 358.67441895 337.18466309 359.46590332 336.38513184 360.28137207 C327.97885603 366.4720403 319.65788599 367.08736476 309.47058105 367.01586914 C308.08313787 367.02048549 306.69569958 367.02684331 305.30827141 367.03477812 C301.51910737 367.0513941 297.73034906 367.04326068 293.94118404 367.03083324 C289.84567019 367.02175317 285.75022431 367.03576709 281.65472412 367.04675293 C273.64089304 367.06451128 265.62721207 367.06071016 257.61337519 367.04910237 C251.0986219 367.04005773 244.5839106 367.0388485 238.06915283 367.04319763 C237.14087358 367.04381056 236.21259434 367.0444235 235.25618541 367.045055 C233.37022605 367.04633394 231.48426671 367.0476308 229.59830737 367.04894537 C211.92618079 367.0603433 194.25413729 367.04724981 176.58202434 367.0257439 C161.42846128 367.00787364 146.27502081 367.01097797 131.12145996 367.02941895 C113.51126908 367.05083956 95.90115096 367.05924474 78.29094887 367.04696989 C76.41204454 367.04569573 74.53314019 367.04443825 72.65423584 367.04319763 C71.72985179 367.04258053 70.80546774 367.04196343 69.85307205 367.04132763 C63.34842101 367.0378783 56.84381624 367.04369407 50.33917236 367.05311584 C42.40889821 367.06435044 34.47878237 367.06126512 26.54852629 367.03999287 C22.50469726 367.02950206 18.46113189 367.02532682 14.41730499 367.03858948 C10.71121637 367.05056035 7.00563435 367.0438744 3.2995913 367.02267927 C1.33307787 367.01613622 -0.63347108 367.02910725 -2.59994698 367.04290819 C-11.42845512 366.96514021 -18.46767133 365.57933195 -25.66174316 360.28137207 C-26.43775879 359.4898877 -27.21377441 358.69840332 -28.01330566 357.88293457 C-29.20053223 356.71891113 -29.20053223 356.71891113 -30.41174316 355.53137207 C-36.44369506 347.34061633 -37.22002654 339.23471299 -37.14624023 329.3001709 C-37.1524802 328.00011266 -37.15872016 326.70005442 -37.16514921 325.36060047 C-37.18175414 321.77665689 -37.17363697 318.19314265 -37.16120434 314.60919809 C-37.15211964 310.73454373 -37.16614045 306.85996098 -37.17712402 302.98532104 C-37.19487749 295.40462962 -37.19108346 287.82409693 -37.17947346 280.24339938 C-37.17042689 274.08047611 -37.16922042 267.9175972 -37.17356873 261.75466919 C-37.17418166 260.87634644 -37.17479459 259.9980237 -37.1754261 259.09308511 C-37.17670504 257.30859175 -37.1780019 255.5240984 -37.17931646 253.73960507 C-37.19071297 237.02030886 -37.17762316 220.3011005 -37.156115 203.5818187 C-37.13824486 189.24692533 -37.14134922 174.91216154 -37.15979004 160.57727051 C-37.18121319 143.91635729 -37.18961442 127.25552098 -37.17734098 110.59459591 C-37.17606684 108.81679727 -37.17480935 107.03899862 -37.17356873 105.26119995 C-37.17295162 104.38656988 -37.17233452 103.51193982 -37.17169872 102.61080581 C-37.16825015 96.4578137 -37.17406351 90.30487052 -37.18348694 84.15188599 C-37.19472436 76.64980277 -37.19163032 69.14788689 -37.17036396 61.64582276 C-37.15987691 57.82071747 -37.15569137 53.99589082 -37.16896057 50.17078781 C-37.18314535 46.01885043 -37.16616841 41.86761197 -37.14624023 37.71569824 C-37.15516312 36.5143263 -37.16408601 35.31295435 -37.17327929 34.07517719 C-37.09304973 25.44948486 -35.58374719 18.50753411 -30.41174316 11.48449707 C-29.62025879 10.70848145 -28.82877441 9.93246582 -28.01330566 9.13293457 C-27.23729004 8.3414502 -26.46127441 7.54996582 -25.66174316 6.73449707 C-17.65494219 0.83801574 -9.71950831 -0.07587532 0 0 Z M-27.45080566 13.38293457 C-34.55744509 23.53527661 -34.78842853 32.7356328 -34.77201843 44.86103821 C-34.77428399 46.0933452 -34.77654955 47.32565218 -34.77888376 48.59530181 C-34.78410362 51.99928311 -34.78487127 55.40321141 -34.78368938 58.80719292 C-34.78348471 62.48487417 -34.78901043 66.16254763 -34.79374695 69.84022522 C-34.8020395 77.03913499 -34.80480115 84.23803657 -34.80535933 91.43695072 C-34.80583512 97.29049994 -34.80789303 103.14404647 -34.81105995 108.99759483 C-34.81986248 125.6065423 -34.82447992 142.21548331 -34.82372948 158.82443313 C-34.82368952 159.71909261 -34.82364957 160.61375209 -34.8236084 161.53552246 C-34.82356752 162.4312787 -34.82352664 163.32703493 -34.82348452 164.24993529 C-34.82307809 178.76582504 -34.83264778 193.28168885 -34.84674677 207.7975711 C-34.86112121 222.71517303 -34.86801637 237.63276232 -34.86715299 252.55037135 C-34.8668214 260.9203445 -34.86955167 269.29029044 -34.88033104 277.66025734 C-34.88945007 284.78645095 -34.89159975 291.91260502 -34.88482162 299.03880195 C-34.88156358 302.67155097 -34.88147376 306.30422419 -34.89017487 309.93696594 C-34.89952797 313.88263877 -34.8932452 317.82820174 -34.88554382 321.77388 C-34.89068739 322.91144818 -34.89583095 324.04901635 -34.90113038 325.22105628 C-34.84934186 337.25888436 -33.70217095 347.0431472 -25.19299316 356.03527832 C-15.29582247 364.93191536 -4.21561999 364.65773376 8.39814758 364.64164734 C9.70395851 364.6439129 11.00976944 364.64617845 12.3551504 364.64851266 C15.96434886 364.65460804 19.57352408 364.65449974 23.1827265 364.65331829 C27.08126849 364.65311371 30.97980313 364.65863846 34.87834167 364.66337585 C42.5103938 364.6716704 50.14243819 364.67443015 57.77449445 364.67498823 C63.97987432 364.67546393 70.18525165 364.67752137 76.39063072 364.68068886 C93.99565362 364.68949193 111.60067043 364.69410874 129.20569555 364.69335838 C130.62833365 364.69329845 130.62833365 364.69329845 132.07971191 364.6932373 C133.02929921 364.69319642 133.97888651 364.69315554 134.95724919 364.69311342 C150.34611938 364.69270698 165.7349651 364.70227692 181.12382821 364.71637567 C196.93639986 364.73074797 212.74895958 364.73764539 228.56153792 364.7367819 C237.43453263 364.73645024 246.30750168 364.73918376 255.18049049 364.74995995 C262.7348777 364.75907614 270.28922762 364.76123098 277.84361795 364.75445052 C281.69509419 364.75119106 285.54649891 364.75110786 289.39796829 364.75980377 C293.58012939 364.76914892 297.76212573 364.76287784 301.94429016 364.75517273 C303.1518954 364.76031629 304.35950064 364.76545986 305.60369998 364.77075928 C317.81813655 364.72112249 327.75225192 363.7086857 336.88903809 355.06262207 C345.28110027 345.72677174 345.51373519 335.4157486 345.4954071 323.47683716 C345.49767266 322.38674894 345.49993822 321.29666072 345.50227243 320.17353952 C345.50858722 316.53190122 345.50778468 312.89030038 345.50695801 309.24865723 C345.50995104 306.63319348 345.5133539 304.01773018 345.51713562 301.40226746 C345.52542332 295.04190389 345.52818959 288.68154959 345.528748 282.32118107 C345.52922398 277.14935472 345.53128283 271.97753141 345.53444862 266.80570602 C345.54324948 252.12850621 345.5478688 237.4513137 345.54711815 222.77411123 C345.54707819 221.98373387 345.54703824 221.19335651 345.54699707 220.37902832 C345.54695619 219.58768129 345.54691531 218.79633427 345.54687319 217.98100702 C345.54646671 205.15543691 345.55603814 192.32989615 345.57013544 179.50433452 C345.58451085 166.32130621 345.591405 153.13829221 345.59054166 139.95525587 C345.59021013 132.55949944 345.59293804 125.1637738 345.60371971 117.76802444 C345.61379489 110.81261196 345.61347748 103.85726546 345.60620308 96.90184975 C345.60515772 94.35175163 345.60751722 91.80164946 345.61356354 89.2515583 C345.62129307 85.76529572 345.6166321 82.27925711 345.6089325 78.79299927 C345.61664784 77.28655253 345.61664784 77.28655253 345.62451905 75.74967253 C345.5372932 57.82493134 339.249011 48.28227321 326.73669434 35.88293457 C326.17724121 35.33379395 325.61778809 34.78465332 325.04138184 34.21887207 C322.61104966 31.74332441 320.3787483 29.1082724 318.11560059 26.48059082 C315.86264146 23.94663902 313.46225208 21.59088901 311.03356934 19.22668457 C309.39898635 17.54627215 307.99064238 15.79178375 306.54919434 13.94543457 C300.34399962 6.6374599 292.58371956 3.85332443 283.36169434 2.50793457 C279.33824273 2.24307254 275.33068694 2.23737576 271.29957581 2.25396729 C270.1227297 2.2508473 268.9458836 2.24772732 267.73337549 2.2445128 C264.49350057 2.23795205 261.25377753 2.24026407 258.0139066 2.24648523 C254.50940051 2.25103211 251.0049141 2.24401489 247.50041199 2.23852539 C240.6453364 2.22965323 233.79030473 2.23154375 226.93522746 2.23735067 C221.36109055 2.24187611 215.7869659 2.24247625 210.21282768 2.24030304 C209.4180545 2.23999657 208.62328131 2.23969011 207.80442409 2.23937435 C206.18960647 2.23873487 204.57478885 2.23808644 202.95997124 2.23742917 C187.83349203 2.23173216 172.7070371 2.2382737 157.58056187 2.2490299 C144.61672473 2.25796312 131.65292341 2.25641405 118.68908691 2.24719238 C103.61653712 2.23647565 88.54400859 2.23228324 73.47145551 2.23841691 C71.86242926 2.23905397 70.25340301 2.23968272 68.64437675 2.24030304 C67.45702768 2.24076587 67.45702768 2.24076587 66.24569177 2.24123804 C60.68228867 2.2429609 55.11889912 2.24005867 49.55549812 2.23534393 C42.76970746 2.22971942 35.98396304 2.23128439 29.19817764 2.24190542 C25.73958946 2.24714133 22.28107821 2.24925464 18.82249069 2.24260712 C15.0651831 2.2371242 11.30809049 2.24401937 7.55079651 2.25396729 C6.46906585 2.24950584 5.3873352 2.2450444 4.27282482 2.24044776 C-8.19052827 2.30424127 -18.77168493 3.72774251 -27.45080566 13.38293457 Z " fill="#A491EF" transform="translate(36.6383056640625,-0.5079345703125)"/>
<path d="M0 0 C0.66 0 1.32 0 2 0 C2.00331015 0.77838132 2.00662029 1.55676264 2.01003075 2.35873127 C2.09138387 21.33129585 2.18351635 40.30378036 2.28752708 59.27623463 C2.33756891 68.45131082 2.38401256 77.62637846 2.421875 86.80151367 C2.45489956 94.80205173 2.494788 102.80252169 2.54279006 110.80298442 C2.56795139 115.03598409 2.5897628 119.2689392 2.60334396 123.50199318 C2.61625901 127.49353998 2.63841321 131.48493311 2.66738319 135.47639465 C2.67638572 136.93434668 2.68213188 138.39232341 2.68421364 139.85030174 C2.70509462 152.26300978 2.75990875 163.17764684 11 173 C20.70190409 182.44659083 32.28183594 182.14997882 45.03645325 182.13371277 C46.99516964 182.1371111 46.99516964 182.1371111 48.99345607 182.14057809 C52.60265452 182.14667347 56.21182974 182.14656517 59.82103217 182.14538372 C63.71957416 182.14517914 67.6181088 182.15070389 71.51664734 182.15544128 C79.14869946 182.16373583 86.78074386 182.16649558 94.41280011 182.16705366 C100.61817998 182.16752936 106.82355732 182.1695868 113.02893639 182.17275429 C130.63395928 182.18155736 148.2389761 182.18617417 165.84400121 182.18542381 C167.26663931 182.18536388 167.26663931 182.18536388 168.71801758 182.18530273 C169.66760488 182.18526185 170.61719218 182.18522097 171.59555485 182.18517885 C186.98442504 182.18477241 202.37327076 182.19434235 217.76213387 182.2084411 C233.57470552 182.2228134 249.38726524 182.22971082 265.19984359 182.22884732 C274.07283829 182.22851567 282.94580734 182.23124919 291.81879616 182.24202538 C299.37318337 182.25114157 306.92753328 182.25329641 314.48192362 182.24651595 C318.33339985 182.24325649 322.18480457 182.24317329 326.03627396 182.2518692 C330.21843506 182.26121435 334.40043139 182.25494327 338.58259583 182.24723816 C339.79020107 182.25238172 340.99780631 182.25752529 342.24200565 182.26282471 C353.57750473 182.21675973 363.0991738 181.4670111 372 174 C381.68623877 164.05197099 381.14788245 152.02267728 381.20532227 138.96484375 C381.21491596 137.55481184 381.22492688 136.14478271 381.23532104 134.73475647 C381.26221474 130.92751832 381.28330778 127.12026797 381.30332303 123.31298828 C381.32527912 119.32647513 381.35262047 115.33999891 381.37937927 111.35351562 C381.42917664 103.81374288 381.47416321 96.27394949 381.51740164 88.73413658 C381.56688515 80.1464238 381.62176186 71.5587481 381.67708123 62.97107124 C381.79070223 45.31408197 381.89758411 27.65705765 382 10 C382.66 10 383.32 10 384 10 C384.09357129 29.51520387 384.1640418 49.03036201 384.20724869 68.54574394 C384.22784644 77.60772083 384.25591355 86.66955807 384.30175781 95.73144531 C384.34171114 103.63267747 384.36745306 111.53380845 384.37635398 119.43513882 C384.38155439 123.61625837 384.39371863 127.79708856 384.42292023 131.97811508 C384.45022391 135.91961875 384.4584151 139.86071596 384.45243073 143.80230522 C384.45352432 145.24297869 384.461389 146.68366682 384.4768219 148.12425804 C384.57732597 157.99642097 383.73460891 165.92879422 377.7734375 174.0234375 C376.98195313 174.79945313 376.19046875 175.57546875 375.375 176.375 C374.21097656 177.56222656 374.21097656 177.56222656 373.0234375 178.7734375 C364.61716169 184.96410573 356.29619165 185.57943019 346.10888672 185.50793457 C344.72144353 185.51255092 343.33400525 185.51890874 341.94657707 185.52684355 C338.15741304 185.54345953 334.36865473 185.53532611 330.57948971 185.52289867 C326.48397586 185.5138186 322.38852997 185.52783252 318.29302979 185.53881836 C310.27919871 185.55657671 302.26551774 185.55277559 294.25168085 185.5411678 C287.73692757 185.53212316 281.22221626 185.53091393 274.7074585 185.53526306 C273.77917925 185.53587599 272.8509 185.53648893 271.89449108 185.53712043 C270.00853172 185.53839937 268.12257237 185.53969623 266.23661304 185.5410108 C248.56448645 185.55240873 230.89244295 185.53931524 213.22033 185.51780933 C198.06676694 185.49993907 182.91332647 185.50304339 167.75976562 185.52148438 C150.14957474 185.54290499 132.53945662 185.55131017 114.92925453 185.53903532 C113.0503502 185.53776116 111.17144586 185.53650368 109.2925415 185.53526306 C108.36815745 185.53464596 107.4437734 185.53402886 106.49137771 185.53339306 C99.98672667 185.52994373 93.4821219 185.5357595 86.97747803 185.54518127 C79.04720388 185.55641587 71.11708804 185.55333055 63.18683195 185.5320583 C59.14300292 185.52156749 55.09943756 185.51739225 51.05561066 185.53065491 C47.34952203 185.54262578 43.64394001 185.53593983 39.93789697 185.5147447 C37.97138353 185.50820165 36.00483458 185.52117268 34.03835869 185.53497362 C25.20985055 185.45720564 18.17063433 184.07139738 10.9765625 178.7734375 C10.20054688 177.98195313 9.42453125 177.19046875 8.625 176.375 C7.83351563 175.59898437 7.04203125 174.82296875 6.2265625 174.0234375 C-0.38057341 165.05164243 -0.56190279 155.83245919 -0.45410156 145.08544922 C-0.45297138 143.49778777 -0.45361028 141.91012423 -0.45587158 140.32246399 C-0.45701299 136.03994868 -0.43359731 131.75788717 -0.40557575 127.47547674 C-0.38046587 122.98987002 -0.37821257 118.50425137 -0.37347412 114.01858521 C-0.36107239 105.53669441 -0.32828897 97.05501136 -0.28807616 88.57321179 C-0.24327091 78.91176627 -0.22134945 69.2503105 -0.20129442 59.58878684 C-0.15955367 39.72574222 -0.08925646 19.86288423 0 0 Z " fill="#FEFCFE" transform="translate(0,181)"/>
<path d="M0 0 C4.21522509 0.13757187 6.63107539 3.23221607 9.39453125 6.06640625 C9.90497482 6.57872299 10.4154184 7.09103973 10.94132996 7.61888123 C12.02145841 8.7057272 13.09798535 9.79616262 14.17114258 10.88989258 C15.78950355 12.53906572 17.41796165 14.17765533 19.04882812 15.81445312 C24.06858063 20.872431 28.9764442 25.98848298 33.61108398 31.40600586 C35.34114333 33.3915143 37.20434802 35.19989103 39.125 37 C44.25465972 42.07001252 48.4442023 47.84333057 50 55 C49.58333333 60.41666667 49.58333333 60.41666667 47 63 C46.90203125 62.3709375 46.8040625 61.741875 46.703125 61.09375 C44.27661239 47.2040571 36.52645754 39.37620026 26.6796875 29.7109375 C24.25062981 27.23668803 22.01936972 24.60321416 19.7578125 21.9765625 C17.48462285 19.42048702 15.06077802 17.04405173 12.61328125 14.65625 C11 13 11 13 8.5625 9.875 C5.44639742 6.37888491 2.05415593 4.2735465 -2 2 C-1.34 1.34 -0.68 0.68 0 0 Z " fill="#9992EF" transform="translate(334,4)"/>
<path d="M0 0 C2.34955038 3.52432557 2.77861795 5.79374114 3 10 C1.51171875 12.22265625 1.51171875 12.22265625 0 14 C-0.38873828 12.04434742 -0.76060833 10.08533496 -1.125 8.125 C-1.33382813 7.03445312 -1.54265625 5.94390625 -1.7578125 4.8203125 C-1.83773438 3.88960937 -1.91765625 2.95890625 -2 2 C-1.34 1.34 -0.68 0.68 0 0 Z " fill="#AE89EF" transform="translate(381,53)"/>
</svg>
