<?xml version="1.0" encoding="UTF-8"?>
<svg version="1.1" xmlns="http://www.w3.org/2000/svg" width="384" height="366">
<path d="M0 0 C1.23880496 -0.00623996 2.47760991 -0.01247993 3.75395441 -0.01890898 C7.16704641 -0.03203874 10.57924928 -0.02740194 13.99228597 -0.0149641 C17.68289089 -0.00587513 21.37342083 -0.01990231 25.06401062 -0.03088379 C32.28375259 -0.04863275 39.50332783 -0.04484526 46.72307622 -0.03323323 C52.59280789 -0.02418487 58.46249297 -0.02298096 64.33222961 -0.02732849 C65.58726811 -0.02824789 65.58726811 -0.02824789 66.86766091 -0.02918586 C68.56759927 -0.03046481 70.26753762 -0.03176167 71.96747595 -0.03307623 C87.89274701 -0.04447141 103.81792584 -0.03138501 119.74318177 -0.00987476 C133.39585062 0.00799526 147.04838341 0.00489086 160.7010498 -0.0135498 C176.57089841 -0.0349753 192.44066627 -0.04337287 208.31052732 -0.03110075 C210.00407122 -0.02982661 211.69761513 -0.02856912 213.39115906 -0.02732849 C214.22432747 -0.02671139 215.05749588 -0.02609429 215.91591182 -0.02545848 C221.77585492 -0.02201062 227.63574663 -0.02782176 233.49568176 -0.0372467 C240.6409395 -0.04848675 247.78602156 -0.04538463 254.93125927 -0.02412373 C258.57409525 -0.01364015 262.21663873 -0.00944507 265.85947227 -0.02272034 C269.81427503 -0.03691409 273.76860303 -0.01992058 277.72338867 0 C278.86639639 -0.00892289 280.00940412 -0.01784577 281.18704844 -0.02703905 C290.38597822 0.06270359 298.44534378 1.92500404 305.12675476 8.56756592 C305.60002701 9.06866882 306.07329926 9.56977173 306.56091309 10.08605957 C307.08506302 10.61632751 307.60921295 11.14659546 308.14924622 11.69293213 C309.79730382 13.36756214 311.42299251 15.06210423 313.04919434 16.75793457 C314.14744211 17.87776115 315.24704448 18.99626089 316.34802246 20.11340332 C321.38611342 25.24972264 326.29220177 30.46186107 330.97717285 35.92492676 C332.70808102 37.90397959 334.5691479 39.71073624 336.48669434 41.50793457 C344.21435456 49.14573828 347.56780473 56.77188336 347.63850534 67.64279294 C347.63385953 69.25805312 347.63385953 69.25805312 347.62911987 70.90594482 C347.63365099 72.05966103 347.6381821 73.21337724 347.64285052 74.40205455 C347.65330806 77.59588108 347.65482252 80.78956574 347.65246177 83.98340392 C347.65205307 87.43139105 347.66309784 90.87934478 347.6725769 94.32731628 C347.68917688 101.07965775 347.69468601 107.83196429 347.69580166 114.58432445 C347.69675268 120.07466159 347.70086568 125.56498724 347.70720291 131.05532074 C347.72481317 146.6297416 347.73404221 162.20413491 347.73254196 177.77856579 C347.73246205 178.61786589 347.73238214 179.45716598 347.7322998 180.32189941 C347.73221804 181.16222728 347.73213628 182.00255515 347.73205204 182.8683475 C347.73123937 196.48299594 347.75037283 210.09753369 347.77857654 223.71215013 C347.80732354 237.69968975 347.82111581 251.68717542 347.81938899 265.67474532 C347.81872567 273.52440424 347.82419199 281.37394714 347.84574509 289.22357941 C347.8639809 295.90778806 347.86828466 302.5918281 347.85472624 309.2760509 C347.84820838 312.68394792 347.84803595 316.09152172 347.86543274 319.49938774 C347.88088102 323.20054278 347.87157828 326.90085275 347.85617065 330.60198975 C347.86645778 331.66990698 347.87674491 332.73782422 347.88734376 333.83810258 C347.81176303 342.07207774 346.06116937 348.84233163 341.13513184 355.53137207 C340.34364746 356.3073877 339.55216309 357.08340332 338.73669434 357.88293457 C337.96067871 358.67441895 337.18466309 359.46590332 336.38513184 360.28137207 C327.97885603 366.4720403 319.65788599 367.08736476 309.47058105 367.01586914 C308.08313787 367.02048549 306.69569958 367.02684331 305.30827141 367.03477812 C301.51910737 367.0513941 297.73034906 367.04326068 293.94118404 367.03083324 C289.84567019 367.02175317 285.75022431 367.03576709 281.65472412 367.04675293 C273.64089304 367.06451128 265.62721207 367.06071016 257.61337519 367.04910237 C251.0986219 367.04005773 244.5839106 367.0388485 238.06915283 367.04319763 C237.14087358 367.04381056 236.21259434 367.0444235 235.25618541 367.045055 C233.37022605 367.04633394 231.48426671 367.0476308 229.59830737 367.04894537 C211.92618079 367.0603433 194.25413729 367.04724981 176.58202434 367.0257439 C161.42846128 367.00787364 146.27502081 367.01097797 131.12145996 367.02941895 C113.51126908 367.05083956 95.90115096 367.05924474 78.29094887 367.04696989 C76.41204454 367.04569573 74.53314019 367.04443825 72.65423584 367.04319763 C71.72985179 367.04258053 70.80546774 367.04196343 69.85307205 367.04132763 C63.34842101 367.0378783 56.84381624 367.04369407 50.33917236 367.05311584 C42.40889821 367.06435044 34.47878237 367.06126512 26.54852629 367.03999287 C22.50469726 367.02950206 18.46113189 367.02532682 14.41730499 367.03858948 C10.71121637 367.05056035 7.00563435 367.0438744 3.2995913 367.02267927 C1.33307787 367.01613622 -0.63347108 367.02910725 -2.59994698 367.04290819 C-11.42845512 366.96514021 -18.46767133 365.57933195 -25.66174316 360.28137207 C-26.43775879 359.4898877 -27.21377441 358.69840332 -28.01330566 357.88293457 C-29.20053223 356.71891113 -29.20053223 356.71891113 -30.41174316 355.53137207 C-36.44369506 347.34061633 -37.22002654 339.23471299 -37.14624023 329.3001709 C-37.1524802 328.00011266 -37.15872016 326.70005442 -37.16514921 325.36060047 C-37.18175414 321.77665689 -37.17363697 318.19314265 -37.16120434 314.60919809 C-37.15211964 310.73454373 -37.16614045 306.85996098 -37.17712402 302.98532104 C-37.19487749 295.40462962 -37.19108346 287.82409693 -37.17947346 280.24339938 C-37.17042689 274.08047611 -37.16922042 267.9175972 -37.17356873 261.75466919 C-37.17418166 260.87634644 -37.17479459 259.9980237 -37.1754261 259.09308511 C-37.17670504 257.30859175 -37.1780019 255.5240984 -37.17931646 253.73960507 C-37.19071297 237.02030886 -37.17762316 220.3011005 -37.156115 203.5818187 C-37.13824486 189.24692533 -37.14134922 174.91216154 -37.15979004 160.57727051 C-37.18121319 143.91635729 -37.18961442 127.25552098 -37.17734098 110.59459591 C-37.17606684 108.81679727 -37.17480935 107.03899862 -37.17356873 105.26119995 C-37.17295162 104.38656988 -37.17233452 103.51193982 -37.17169872 102.61080581 C-37.16825015 96.4578137 -37.17406351 90.30487052 -37.18348694 84.15188599 C-37.19472436 76.64980277 -37.19163032 69.14788689 -37.17036396 61.64582276 C-37.15987691 57.82071747 -37.15569137 53.99589082 -37.16896057 50.17078781 C-37.18314535 46.01885043 -37.16616841 41.86761197 -37.14624023 37.71569824 C-37.15516312 36.5143263 -37.16408601 35.31295435 -37.17327929 34.07517719 C-37.09304973 25.44948486 -35.58374719 18.50753411 -30.41174316 11.48449707 C-29.62025879 10.70848145 -28.82877441 9.93246582 -28.01330566 9.13293457 C-27.23729004 8.3414502 -26.46127441 7.54996582 -25.66174316 6.73449707 C-17.65494219 0.83801574 -9.71950831 -0.07587532 0 0 Z M-27.45080566 13.38293457 C-34.55744509 23.53527661 -34.78842853 32.7356328 -34.77201843 44.86103821 C-34.77428399 46.0933452 -34.77654955 47.32565218 -34.77888376 48.59530181 C-34.78410362 51.99928311 -34.78487127 55.40321141 -34.78368938 58.80719292 C-34.78348471 62.48487417 -34.78901043 66.16254763 -34.79374695 69.84022522 C-34.8020395 77.03913499 -34.80480115 84.23803657 -34.80535933 91.43695072 C-34.80583512 97.29049994 -34.80789303 103.14404647 -34.81105995 108.99759483 C-34.81986248 125.6065423 -34.82447992 142.21548331 -34.82372948 158.82443313 C-34.82368952 159.71909261 -34.82364957 160.61375209 -34.8236084 161.53552246 C-34.82356752 162.4312787 -34.82352664 163.32703493 -34.82348452 164.24993529 C-34.82307809 178.76582504 -34.83264778 193.28168885 -34.84674677 207.7975711 C-34.86112121 222.71517303 -34.86801637 237.63276232 -34.86715299 252.55037135 C-34.8668214 260.9203445 -34.86955167 269.29029044 -34.88033104 277.66025734 C-34.88945007 284.78645095 -34.89159975 291.91260502 -34.88482162 299.03880195 C-34.88156358 302.67155097 -34.88147376 306.30422419 -34.89017487 309.93696594 C-34.89952797 313.88263877 -34.8932452 317.82820174 -34.88554382 321.77388 C-34.89068739 322.91144818 -34.89583095 324.04901635 -34.90113038 325.22105628 C-34.84934186 337.25888436 -33.70217095 347.0431472 -25.19299316 356.03527832 C-15.29582247 364.93191536 -4.21561999 364.65773376 8.39814758 364.64164734 C9.70395851 364.6439129 11.00976944 364.64617845 12.3551504 364.64851266 C15.96434886 364.65460804 19.57352408 364.65449974 23.1827265 364.65331829 C27.08126849 364.65311371 30.97980313 364.65863846 34.87834167 364.66337585 C42.5103938 364.6716704 50.14243819 364.67443015 57.77449445 364.67498823 C63.97987432 364.67546393 70.18525165 364.67752137 76.39063072 364.68068886 C93.99565362 364.68949193 111.60067043 364.69410874 129.20569555 364.69335838 C130.62833365 364.69329845 130.62833365 364.69329845 132.07971191 364.6932373 C133.02929921 364.69319642 133.97888651 364.69315554 134.95724919 364.69311342 C150.34611938 364.69270698 165.7349651 364.70227692 181.12382821 364.71637567 C196.93639986 364.73074797 212.74895958 364.73764539 228.56153792 364.7367819 C237.43453263 364.73645024 246.30750168 364.73918376 255.18049049 364.74995995 C262.7348777 364.75907614 270.28922762 364.76123098 277.84361795 364.75445052 C281.69509419 364.75119106 285.54649891 364.75110786 289.39796829 364.75980377 C293.58012939 364.76914892 297.76212573 364.76287784 301.94429016 364.75517273 C303.1518954 364.76031629 304.35950064 364.76545986 305.60369998 364.77075928 C317.81813655 364.72112249 327.75225192 363.7086857 336.88903809 355.06262207 C345.28110027 345.72677174 345.51373519 335.4157486 345.4954071 323.47683716 C345.49767266 322.38674894 345.49993822 321.29666072 345.50227243 320.17353952 C345.50858722 316.53190122 345.50778468 312.89030038 345.50695801 309.24865723 C345.50995104 306.63319348 345.5133539 304.01773018 345.51713562 301.40226746 C345.52542332 295.04190389 345.52818959 288.68154959 345.528748 282.32118107 C345.52922398 277.14935472 345.53128283 271.97753141 345.53444862 266.80570602 C345.54324948 252.12850621 345.5478688 237.4513137 345.54711815 222.77411123 C345.54707819 221.98373387 345.54703824 221.19335651 345.54699707 220.37902832 C345.54695619 219.58768129 345.54691531 218.79633427 345.54687319 217.98100702 C345.54646671 205.15543691 345.55603814 192.32989615 345.57013544 179.50433452 C345.58451085 166.32130621 345.591405 153.13829221 345.59054166 139.95525587 C345.59021013 132.55949944 345.59293804 125.1637738 345.60371971 117.76802444 C345.61379489 110.81261196 345.61347748 103.85726546 345.60620308 96.90184975 C345.60515772 94.35175163 345.60751722 91.80164946 345.61356354 89.2515583 C345.62129307 85.76529572 345.6166321 82.27925711 345.6089325 78.79299927 C345.61664784 77.28655253 345.61664784 77.28655253 345.62451905 75.74967253 C345.5372932 57.82493134 339.249011 48.28227321 326.73669434 35.88293457 C326.17724121 35.33379395 325.61778809 34.78465332 325.04138184 34.21887207 C322.61104966 31.74332441 320.3787483 29.1082724 318.11560059 26.48059082 C315.86264146 23.94663902 313.46225208 21.59088901 311.03356934 19.22668457 C309.39898635 17.54627215 307.99064238 15.79178375 306.54919434 13.94543457 C300.34399962 6.6374599 292.58371956 3.85332443 283.36169434 2.50793457 C279.33824273 2.24307254 275.33068694 2.23737576 271.29957581 2.25396729 C270.1227297 2.2508473 268.9458836 2.24772732 267.73337549 2.2445128 C264.49350057 2.23795205 261.25377753 2.24026407 258.0139066 2.24648523 C254.50940051 2.25103211 251.0049141 2.24401489 247.50041199 2.23852539 C240.6453364 2.22965323 233.79030473 2.23154375 226.93522746 2.23735067 C221.36109055 2.24187611 215.7869659 2.24247625 210.21282768 2.24030304 C209.4180545 2.23999657 208.62328131 2.23969011 207.80442409 2.23937435 C206.18960647 2.23873487 204.57478885 2.23808644 202.95997124 2.23742917 C187.83349203 2.23173216 172.7070371 2.2382737 157.58056187 2.2490299 C144.61672473 2.25796312 131.65292341 2.25641405 118.68908691 2.24719238 C103.61653712 2.23647565 88.54400859 2.23228324 73.47145551 2.23841691 C71.86242926 2.23905397 70.25340301 2.23968272 68.64437675 2.24030304 C67.45702768 2.24076587 67.45702768 2.24076587 66.24569177 2.24123804 C60.68228867 2.2429609 55.11889912 2.24005867 49.55549812 2.23534393 C42.76970746 2.22971942 35.98396304 2.23128439 29.19817764 2.24190542 C25.73958946 2.24714133 22.28107821 2.24925464 18.82249069 2.24260712 C15.0651831 2.2371242 11.30809049 2.24401937 7.55079651 2.25396729 C6.46906585 2.24950584 5.3873352 2.2450444 4.27282482 2.24044776 C-8.19052827 2.30424127 -18.77168493 3.72774251 -27.45080566 13.38293457 Z " fill="#DB81F1" transform="translate(36.6383056640625,-0.5079345703125)"/>
<path d="M0 0 C0.66 0 1.32 0 2 0 C2.09357129 19.51520387 2.1640418 39.03036201 2.20724869 58.54574394 C2.22784644 67.60772083 2.25591355 76.66955807 2.30175781 85.73144531 C2.34171114 93.63267747 2.36745306 101.53380845 2.37635398 109.43513882 C2.38155439 113.61625837 2.39371863 117.79708856 2.42292023 121.97811508 C2.45022391 125.91961875 2.4584151 129.86071596 2.45243073 133.80230522 C2.45352432 135.24297869 2.461389 136.68366682 2.4768219 138.12425804 C2.57732597 147.99642097 1.73460891 155.92879422 -4.2265625 164.0234375 C-5.01804687 164.79945313 -5.80953125 165.57546875 -6.625 166.375 C-7.78902344 167.56222656 -7.78902344 167.56222656 -8.9765625 168.7734375 C-17.38283831 174.96410573 -25.70380835 175.57943019 -35.89111328 175.50793457 C-37.27855647 175.51255092 -38.66599475 175.51890874 -40.05342293 175.52684355 C-43.84258696 175.54345953 -47.63134527 175.53532611 -51.42051029 175.52289867 C-55.51602414 175.5138186 -59.61147003 175.52783252 -63.70697021 175.53881836 C-71.72080129 175.55657671 -79.73448226 175.55277559 -87.74831915 175.5411678 C-94.26307243 175.53212316 -100.77778374 175.53091393 -107.2925415 175.53526306 C-108.22082075 175.53587599 -109.1491 175.53648893 -110.10550892 175.53712043 C-111.99146828 175.53839937 -113.87742763 175.53969623 -115.76338696 175.5410108 C-133.43551355 175.55240873 -151.10755705 175.53931524 -168.77967 175.51780933 C-183.93323306 175.49993907 -199.08667353 175.50304339 -214.24023438 175.52148438 C-231.85042526 175.54290499 -249.46054338 175.55131017 -267.07074547 175.53903532 C-268.9496498 175.53776116 -270.82855414 175.53650368 -272.7074585 175.53526306 C-273.63184255 175.53464596 -274.5562266 175.53402886 -275.50862229 175.53339306 C-282.01327333 175.52994373 -288.5178781 175.5357595 -295.02252197 175.54518127 C-302.95279612 175.55641587 -310.88291196 175.55333055 -318.81316805 175.5320583 C-322.85699708 175.52156749 -326.90056244 175.51739225 -330.94438934 175.53065491 C-334.65047797 175.54262578 -338.35605999 175.53593983 -342.06210303 175.5147447 C-344.02861647 175.50820165 -345.99516542 175.52117268 -347.96164131 175.53497362 C-356.79014945 175.45720564 -363.82936567 174.07139738 -371.0234375 168.7734375 C-371.79945313 167.98195313 -372.57546875 167.19046875 -373.375 166.375 C-374.16648437 165.59898437 -374.95796875 164.82296875 -375.7734375 164.0234375 C-382.05752822 155.49030378 -382.56834419 147.07447079 -382.45410156 136.73779297 C-382.45297099 135.3274692 -382.45361103 133.91714309 -382.45587158 132.50682068 C-382.4570115 128.70773675 -382.43362068 124.9091659 -382.40557575 121.11020041 C-382.38044048 117.1290868 -382.3782106 113.14795928 -382.37347412 109.16677856 C-382.36107975 101.64110605 -382.32830653 94.11566809 -382.28807616 86.5900985 C-382.24324774 78.01690695 -382.22134368 69.44370375 -382.20129442 60.87042403 C-382.15957038 43.24681676 -382.0892878 25.62342729 -382 8 C-381.34 8 -380.68 8 -380 8 C-379.99668985 8.68561414 -379.99337971 9.37122828 -379.98996925 10.0776186 C-379.90857962 26.79698958 -379.81643554 43.51626372 -379.71247292 60.23550892 C-379.66245295 68.32096803 -379.61600926 76.40641753 -379.578125 84.49194336 C-379.54507748 91.5432088 -379.50517681 98.59439731 -379.45720994 105.64557761 C-379.43207113 109.3755546 -379.4102534 113.10548139 -379.39665604 116.83551979 C-379.38130962 121.01000556 -379.35065617 125.18424975 -379.31884766 129.35864258 C-379.31668747 130.58144424 -379.31452728 131.80424591 -379.31230164 133.06410217 C-379.20182468 144.45503918 -378.50816192 154.0501212 -371 163 C-361.29809591 172.44659083 -349.71816406 172.14997882 -336.96354675 172.13371277 C-335.00483036 172.1371111 -335.00483036 172.1371111 -333.00654393 172.14057809 C-329.39734548 172.14667347 -325.78817026 172.14656517 -322.17896783 172.14538372 C-318.28042584 172.14517914 -314.3818912 172.15070389 -310.48335266 172.15544128 C-302.85130054 172.16373583 -295.21925614 172.16649558 -287.58719989 172.16705366 C-281.38182002 172.16752936 -275.17644268 172.1695868 -268.97106361 172.17275429 C-251.36604072 172.18155736 -233.7610239 172.18617417 -216.15599879 172.18542381 C-214.73336069 172.18536388 -214.73336069 172.18536388 -213.28198242 172.18530273 C-212.33239512 172.18526185 -211.38280782 172.18522097 -210.40444515 172.18517885 C-195.01557496 172.18477241 -179.62672924 172.19434235 -164.23786613 172.2084411 C-148.42529448 172.2228134 -132.61273476 172.22971082 -116.80015641 172.22884732 C-107.92716171 172.22851567 -99.05419266 172.23124919 -90.18120384 172.24202538 C-82.62681663 172.25114157 -75.07246672 172.25329641 -67.51807638 172.24651595 C-63.66660015 172.24325649 -59.81519543 172.24317329 -55.96372604 172.2518692 C-51.78156494 172.26121435 -47.59956861 172.25494327 -43.41740417 172.24723816 C-42.20979893 172.25238172 -41.00219369 172.25752529 -39.75799435 172.26282471 C-28.42249527 172.21675973 -18.9008262 171.4670111 -10 164 C-0.31376123 154.05197099 -0.85211755 142.02267728 -0.79467773 128.96484375 C-0.78508404 127.55481184 -0.77507312 126.14478271 -0.76467896 124.73475647 C-0.73778526 120.92751832 -0.71669222 117.12026797 -0.69667697 113.31298828 C-0.67472088 109.32647513 -0.64737953 105.33999891 -0.62062073 101.35351562 C-0.57082336 93.81374288 -0.52583679 86.27394949 -0.48259836 78.73413658 C-0.43311485 70.1464238 -0.37823814 61.5587481 -0.32291877 52.97107124 C-0.20929777 35.31408197 -0.10241589 17.65705765 0 0 Z " fill="#FEFEFE" transform="translate(382,191)"/>
<path d="M0 0 C3.12671803 2.55822385 3.91935995 5.16574628 5 9 C5.24609566 11.79977989 5.24609566 11.79977989 5.24050903 14.73275757 C5.24325836 15.85167389 5.24600769 16.97059021 5.24884033 18.12341309 C5.24164978 19.33613892 5.23445923 20.54886475 5.22705078 21.79833984 C5.22734283 23.08668732 5.22763489 24.37503479 5.22793579 25.7024231 C5.22850808 29.22267298 5.2167739 32.74278573 5.20278788 36.26300383 C5.19025983 39.94653847 5.18910838 43.63007649 5.18673706 47.31362915 C5.18052838 54.28332192 5.16412586 61.25295171 5.14403808 68.22261679 C5.12166002 76.15971818 5.11068086 84.09682261 5.10064721 92.03394771 C5.07975907 108.35600196 5.04459502 124.67799294 5 141 C4.34 141 3.68 141 3 141 C2.99668985 140.37015512 2.99337971 139.74031025 2.98996925 139.09137917 C2.90858273 123.73261926 2.81643967 108.37396667 2.71247292 93.01534462 C2.66245107 85.5878872 2.61600739 78.16044023 2.578125 70.73291016 C2.54507944 64.25553841 2.50517984 57.77825042 2.45720994 51.30097139 C2.43206917 47.87451666 2.41025203 44.4481166 2.39665604 41.021595 C2.37971378 37.18696429 2.35065885 33.3525987 2.31884766 29.51806641 C2.31668747 28.39452759 2.31452728 27.27098877 2.31230164 26.11340332 C2.25051508 20.26265985 1.78556595 14.85148817 0.43849754 9.15024376 C-0.19477152 6.04490631 -0.13730317 3.15797283 0 0 Z " fill="#E181F9" transform="translate(379,50)"/>
</svg>
