<?xml version="1.0" encoding="UTF-8"?>
<svg version="1.1" xmlns="http://www.w3.org/2000/svg" width="384" height="366">
<path d="M0 0 C1.23880496 -0.00623996 2.47760991 -0.01247993 3.75395441 -0.01890898 C7.16704641 -0.03203874 10.57924928 -0.02740194 13.99228597 -0.0149641 C17.68289089 -0.00587513 21.37342083 -0.01990231 25.06401062 -0.03088379 C32.28375259 -0.04863275 39.50332783 -0.04484526 46.72307622 -0.03323323 C52.59280789 -0.02418487 58.46249297 -0.02298096 64.33222961 -0.02732849 C65.58726811 -0.02824789 65.58726811 -0.02824789 66.86766091 -0.02918586 C68.56759927 -0.03046481 70.26753762 -0.03176167 71.96747595 -0.03307623 C87.89274701 -0.04447141 103.81792584 -0.03138501 119.74318177 -0.00987476 C133.39585062 0.00799526 147.04838341 0.00489086 160.7010498 -0.0135498 C176.57089841 -0.0349753 192.44066627 -0.04337287 208.31052732 -0.03110075 C210.00407122 -0.02982661 211.69761513 -0.02856912 213.39115906 -0.02732849 C214.22432747 -0.02671139 215.05749588 -0.02609429 215.91591182 -0.02545848 C221.77585492 -0.02201062 227.63574663 -0.02782176 233.49568176 -0.0372467 C240.6409395 -0.04848675 247.78602156 -0.04538463 254.93125927 -0.02412373 C258.57409525 -0.01364015 262.21663873 -0.00944507 265.85947227 -0.02272034 C269.81427503 -0.03691409 273.76860303 -0.01992058 277.72338867 0 C278.86639639 -0.00892289 280.00940412 -0.01784577 281.18704844 -0.02703905 C290.38597822 0.06270359 298.44534378 1.92500404 305.12675476 8.56756592 C305.60002701 9.06866882 306.07329926 9.56977173 306.56091309 10.08605957 C307.08506302 10.61632751 307.60921295 11.14659546 308.14924622 11.69293213 C309.79730382 13.36756214 311.42299251 15.06210423 313.04919434 16.75793457 C314.14744211 17.87776115 315.24704448 18.99626089 316.34802246 20.11340332 C321.38611342 25.24972264 326.29220177 30.46186107 330.97717285 35.92492676 C332.70808102 37.90397959 334.5691479 39.71073624 336.48669434 41.50793457 C344.21435456 49.14573828 347.56780473 56.77188336 347.63850534 67.64279294 C347.63385953 69.25805312 347.63385953 69.25805312 347.62911987 70.90594482 C347.63365099 72.05966103 347.6381821 73.21337724 347.64285052 74.40205455 C347.65330806 77.59588108 347.65482252 80.78956574 347.65246177 83.98340392 C347.65205307 87.43139105 347.66309784 90.87934478 347.6725769 94.32731628 C347.68917688 101.07965775 347.69468601 107.83196429 347.69580166 114.58432445 C347.69675268 120.07466159 347.70086568 125.56498724 347.70720291 131.05532074 C347.72481317 146.6297416 347.73404221 162.20413491 347.73254196 177.77856579 C347.73246205 178.61786589 347.73238214 179.45716598 347.7322998 180.32189941 C347.73221804 181.16222728 347.73213628 182.00255515 347.73205204 182.8683475 C347.73123937 196.48299594 347.75037283 210.09753369 347.77857654 223.71215013 C347.80732354 237.69968975 347.82111581 251.68717542 347.81938899 265.67474532 C347.81872567 273.52440424 347.82419199 281.37394714 347.84574509 289.22357941 C347.8639809 295.90778806 347.86828466 302.5918281 347.85472624 309.2760509 C347.84820838 312.68394792 347.84803595 316.09152172 347.86543274 319.49938774 C347.88088102 323.20054278 347.87157828 326.90085275 347.85617065 330.60198975 C347.86645778 331.66990698 347.87674491 332.73782422 347.88734376 333.83810258 C347.81176303 342.07207774 346.06116937 348.84233163 341.13513184 355.53137207 C340.34364746 356.3073877 339.55216309 357.08340332 338.73669434 357.88293457 C337.96067871 358.67441895 337.18466309 359.46590332 336.38513184 360.28137207 C327.97885603 366.4720403 319.65788599 367.08736476 309.47058105 367.01586914 C308.08313787 367.02048549 306.69569958 367.02684331 305.30827141 367.03477812 C301.51910737 367.0513941 297.73034906 367.04326068 293.94118404 367.03083324 C289.84567019 367.02175317 285.75022431 367.03576709 281.65472412 367.04675293 C273.64089304 367.06451128 265.62721207 367.06071016 257.61337519 367.04910237 C251.0986219 367.04005773 244.5839106 367.0388485 238.06915283 367.04319763 C237.14087358 367.04381056 236.21259434 367.0444235 235.25618541 367.045055 C233.37022605 367.04633394 231.48426671 367.0476308 229.59830737 367.04894537 C211.92618079 367.0603433 194.25413729 367.04724981 176.58202434 367.0257439 C161.42846128 367.00787364 146.27502081 367.01097797 131.12145996 367.02941895 C113.51126908 367.05083956 95.90115096 367.05924474 78.29094887 367.04696989 C76.41204454 367.04569573 74.53314019 367.04443825 72.65423584 367.04319763 C71.72985179 367.04258053 70.80546774 367.04196343 69.85307205 367.04132763 C63.34842101 367.0378783 56.84381624 367.04369407 50.33917236 367.05311584 C42.40889821 367.06435044 34.47878237 367.06126512 26.54852629 367.03999287 C22.50469726 367.02950206 18.46113189 367.02532682 14.41730499 367.03858948 C10.71121637 367.05056035 7.00563435 367.0438744 3.2995913 367.02267927 C1.33307787 367.01613622 -0.63347108 367.02910725 -2.59994698 367.04290819 C-11.42845512 366.96514021 -18.46767133 365.57933195 -25.66174316 360.28137207 C-26.43775879 359.4898877 -27.21377441 358.69840332 -28.01330566 357.88293457 C-29.20053223 356.71891113 -29.20053223 356.71891113 -30.41174316 355.53137207 C-36.44369506 347.34061633 -37.22002654 339.23471299 -37.14624023 329.3001709 C-37.1524802 328.00011266 -37.15872016 326.70005442 -37.16514921 325.36060047 C-37.18175414 321.77665689 -37.17363697 318.19314265 -37.16120434 314.60919809 C-37.15211964 310.73454373 -37.16614045 306.85996098 -37.17712402 302.98532104 C-37.19487749 295.40462962 -37.19108346 287.82409693 -37.17947346 280.24339938 C-37.17042689 274.08047611 -37.16922042 267.9175972 -37.17356873 261.75466919 C-37.17418166 260.87634644 -37.17479459 259.9980237 -37.1754261 259.09308511 C-37.17670504 257.30859175 -37.1780019 255.5240984 -37.17931646 253.73960507 C-37.19071297 237.02030886 -37.17762316 220.3011005 -37.156115 203.5818187 C-37.13824486 189.24692533 -37.14134922 174.91216154 -37.15979004 160.57727051 C-37.18121319 143.91635729 -37.18961442 127.25552098 -37.17734098 110.59459591 C-37.17606684 108.81679727 -37.17480935 107.03899862 -37.17356873 105.26119995 C-37.17295162 104.38656988 -37.17233452 103.51193982 -37.17169872 102.61080581 C-37.16825015 96.4578137 -37.17406351 90.30487052 -37.18348694 84.15188599 C-37.19472436 76.64980277 -37.19163032 69.14788689 -37.17036396 61.64582276 C-37.15987691 57.82071747 -37.15569137 53.99589082 -37.16896057 50.17078781 C-37.18314535 46.01885043 -37.16616841 41.86761197 -37.14624023 37.71569824 C-37.15516312 36.5143263 -37.16408601 35.31295435 -37.17327929 34.07517719 C-37.09304973 25.44948486 -35.58374719 18.50753411 -30.41174316 11.48449707 C-29.62025879 10.70848145 -28.82877441 9.93246582 -28.01330566 9.13293457 C-27.23729004 8.3414502 -26.46127441 7.54996582 -25.66174316 6.73449707 C-17.65494219 0.83801574 -9.71950831 -0.07587532 0 0 Z M-27.45080566 13.38293457 C-34.55744509 23.53527661 -34.78842853 32.7356328 -34.77201843 44.86103821 C-34.77428399 46.0933452 -34.77654955 47.32565218 -34.77888376 48.59530181 C-34.78410362 51.99928311 -34.78487127 55.40321141 -34.78368938 58.80719292 C-34.78348471 62.48487417 -34.78901043 66.16254763 -34.79374695 69.84022522 C-34.8020395 77.03913499 -34.80480115 84.23803657 -34.80535933 91.43695072 C-34.80583512 97.29049994 -34.80789303 103.14404647 -34.81105995 108.99759483 C-34.81986248 125.6065423 -34.82447992 142.21548331 -34.82372948 158.82443313 C-34.82368952 159.71909261 -34.82364957 160.61375209 -34.8236084 161.53552246 C-34.82356752 162.4312787 -34.82352664 163.32703493 -34.82348452 164.24993529 C-34.82307809 178.76582504 -34.83264778 193.28168885 -34.84674677 207.7975711 C-34.86112121 222.71517303 -34.86801637 237.63276232 -34.86715299 252.55037135 C-34.8668214 260.9203445 -34.86955167 269.29029044 -34.88033104 277.66025734 C-34.88945007 284.78645095 -34.89159975 291.91260502 -34.88482162 299.03880195 C-34.88156358 302.67155097 -34.88147376 306.30422419 -34.89017487 309.93696594 C-34.89952797 313.88263877 -34.8932452 317.82820174 -34.88554382 321.77388 C-34.89068739 322.91144818 -34.89583095 324.04901635 -34.90113038 325.22105628 C-34.84934186 337.25888436 -33.70217095 347.0431472 -25.19299316 356.03527832 C-15.29582247 364.93191536 -4.21561999 364.65773376 8.39814758 364.64164734 C9.70395851 364.6439129 11.00976944 364.64617845 12.3551504 364.64851266 C15.96434886 364.65460804 19.57352408 364.65449974 23.1827265 364.65331829 C27.08126849 364.65311371 30.97980313 364.65863846 34.87834167 364.66337585 C42.5103938 364.6716704 50.14243819 364.67443015 57.77449445 364.67498823 C63.97987432 364.67546393 70.18525165 364.67752137 76.39063072 364.68068886 C93.99565362 364.68949193 111.60067043 364.69410874 129.20569555 364.69335838 C130.62833365 364.69329845 130.62833365 364.69329845 132.07971191 364.6932373 C133.02929921 364.69319642 133.97888651 364.69315554 134.95724919 364.69311342 C150.34611938 364.69270698 165.7349651 364.70227692 181.12382821 364.71637567 C196.93639986 364.73074797 212.74895958 364.73764539 228.56153792 364.7367819 C237.43453263 364.73645024 246.30750168 364.73918376 255.18049049 364.74995995 C262.7348777 364.75907614 270.28922762 364.76123098 277.84361795 364.75445052 C281.69509419 364.75119106 285.54649891 364.75110786 289.39796829 364.75980377 C293.58012939 364.76914892 297.76212573 364.76287784 301.94429016 364.75517273 C303.1518954 364.76031629 304.35950064 364.76545986 305.60369998 364.77075928 C317.81813655 364.72112249 327.75225192 363.7086857 336.88903809 355.06262207 C345.28110027 345.72677174 345.51373519 335.4157486 345.4954071 323.47683716 C345.49767266 322.38674894 345.49993822 321.29666072 345.50227243 320.17353952 C345.50858722 316.53190122 345.50778468 312.89030038 345.50695801 309.24865723 C345.50995104 306.63319348 345.5133539 304.01773018 345.51713562 301.40226746 C345.52542332 295.04190389 345.52818959 288.68154959 345.528748 282.32118107 C345.52922398 277.14935472 345.53128283 271.97753141 345.53444862 266.80570602 C345.54324948 252.12850621 345.5478688 237.4513137 345.54711815 222.77411123 C345.54707819 221.98373387 345.54703824 221.19335651 345.54699707 220.37902832 C345.54695619 219.58768129 345.54691531 218.79633427 345.54687319 217.98100702 C345.54646671 205.15543691 345.55603814 192.32989615 345.57013544 179.50433452 C345.58451085 166.32130621 345.591405 153.13829221 345.59054166 139.95525587 C345.59021013 132.55949944 345.59293804 125.1637738 345.60371971 117.76802444 C345.61379489 110.81261196 345.61347748 103.85726546 345.60620308 96.90184975 C345.60515772 94.35175163 345.60751722 91.80164946 345.61356354 89.2515583 C345.62129307 85.76529572 345.6166321 82.27925711 345.6089325 78.79299927 C345.61664784 77.28655253 345.61664784 77.28655253 345.62451905 75.74967253 C345.5372932 57.82493134 339.249011 48.28227321 326.73669434 35.88293457 C326.17724121 35.33379395 325.61778809 34.78465332 325.04138184 34.21887207 C322.61104966 31.74332441 320.3787483 29.1082724 318.11560059 26.48059082 C315.86264146 23.94663902 313.46225208 21.59088901 311.03356934 19.22668457 C309.39898635 17.54627215 307.99064238 15.79178375 306.54919434 13.94543457 C300.34399962 6.6374599 292.58371956 3.85332443 283.36169434 2.50793457 C279.33824273 2.24307254 275.33068694 2.23737576 271.29957581 2.25396729 C270.1227297 2.2508473 268.9458836 2.24772732 267.73337549 2.2445128 C264.49350057 2.23795205 261.25377753 2.24026407 258.0139066 2.24648523 C254.50940051 2.25103211 251.0049141 2.24401489 247.50041199 2.23852539 C240.6453364 2.22965323 233.79030473 2.23154375 226.93522746 2.23735067 C221.36109055 2.24187611 215.7869659 2.24247625 210.21282768 2.24030304 C209.4180545 2.23999657 208.62328131 2.23969011 207.80442409 2.23937435 C206.18960647 2.23873487 204.57478885 2.23808644 202.95997124 2.23742917 C187.83349203 2.23173216 172.7070371 2.2382737 157.58056187 2.2490299 C144.61672473 2.25796312 131.65292341 2.25641405 118.68908691 2.24719238 C103.61653712 2.23647565 88.54400859 2.23228324 73.47145551 2.23841691 C71.86242926 2.23905397 70.25340301 2.23968272 68.64437675 2.24030304 C67.45702768 2.24076587 67.45702768 2.24076587 66.24569177 2.24123804 C60.68228867 2.2429609 55.11889912 2.24005867 49.55549812 2.23534393 C42.76970746 2.22971942 35.98396304 2.23128439 29.19817764 2.24190542 C25.73958946 2.24714133 22.28107821 2.24925464 18.82249069 2.24260712 C15.0651831 2.2371242 11.30809049 2.24401937 7.55079651 2.25396729 C6.46906585 2.24950584 5.3873352 2.2450444 4.27282482 2.24044776 C-8.19052827 2.30424127 -18.77168493 3.72774251 -27.45080566 13.38293457 Z " fill="#6CB8FE" transform="translate(36.6383056640625,-0.5079345703125)"/>
<path d="M0 0 C0.66 0 1.32 0 2 0 C2.00331015 0.726844 2.00662029 1.45368799 2.01003075 2.20255756 C2.091403 19.92334735 2.18354157 37.64404881 2.28752708 55.36472034 C2.33755745 63.93445378 2.38400113 72.50417811 2.421875 81.07397461 C2.45491159 88.5471388 2.49480645 96.02023026 2.54279006 103.49331397 C2.56793958 107.44685661 2.58975432 111.40035173 2.60334396 115.35395241 C2.61626994 119.08285631 2.63843528 122.81159624 2.66738319 126.54040909 C2.68063328 128.54571097 2.68435998 130.55106887 2.68769836 132.55641174 C2.79375538 144.13112146 3.36273473 153.89622744 11 163 C20.70190409 172.44659083 32.28183594 172.14997882 45.03645325 172.13371277 C46.99516964 172.1371111 46.99516964 172.1371111 48.99345607 172.14057809 C52.60265452 172.14667347 56.21182974 172.14656517 59.82103217 172.14538372 C63.71957416 172.14517914 67.6181088 172.15070389 71.51664734 172.15544128 C79.14869946 172.16373583 86.78074386 172.16649558 94.41280011 172.16705366 C100.61817998 172.16752936 106.82355732 172.1695868 113.02893639 172.17275429 C130.63395928 172.18155736 148.2389761 172.18617417 165.84400121 172.18542381 C167.26663931 172.18536388 167.26663931 172.18536388 168.71801758 172.18530273 C169.66760488 172.18526185 170.61719218 172.18522097 171.59555485 172.18517885 C186.98442504 172.18477241 202.37327076 172.19434235 217.76213387 172.2084411 C233.57470552 172.2228134 249.38726524 172.22971082 265.19984359 172.22884732 C274.07283829 172.22851567 282.94580734 172.23124919 291.81879616 172.24202538 C299.37318337 172.25114157 306.92753328 172.25329641 314.48192362 172.24651595 C318.33339985 172.24325649 322.18480457 172.24317329 326.03627396 172.2518692 C330.21843506 172.26121435 334.40043139 172.25494327 338.58259583 172.24723816 C339.79020107 172.25238172 340.99780631 172.25752529 342.24200565 172.26282471 C353.57750473 172.21675973 363.0991738 171.4670111 372 164 C381.68623877 154.05197099 381.14788245 142.02267728 381.20532227 128.96484375 C381.21491596 127.55481184 381.22492688 126.14478271 381.23532104 124.73475647 C381.26221474 120.92751832 381.28330778 117.12026797 381.30332303 113.31298828 C381.32527912 109.32647513 381.35262047 105.33999891 381.37937927 101.35351562 C381.42917664 93.81374288 381.47416321 86.27394949 381.51740164 78.73413658 C381.56688515 70.1464238 381.62176186 61.5587481 381.67708123 52.97107124 C381.79070223 35.31408197 381.89758411 17.65705765 382 0 C382.66 0 383.32 0 384 0 C384.09357129 19.51520387 384.1640418 39.03036201 384.20724869 58.54574394 C384.22784644 67.60772083 384.25591355 76.66955807 384.30175781 85.73144531 C384.34171114 93.63267747 384.36745306 101.53380845 384.37635398 109.43513882 C384.38155439 113.61625837 384.39371863 117.79708856 384.42292023 121.97811508 C384.45022391 125.91961875 384.4584151 129.86071596 384.45243073 133.80230522 C384.45352432 135.24297869 384.461389 136.68366682 384.4768219 138.12425804 C384.57732597 147.99642097 383.73460891 155.92879422 377.7734375 164.0234375 C376.98195313 164.79945313 376.19046875 165.57546875 375.375 166.375 C374.21097656 167.56222656 374.21097656 167.56222656 373.0234375 168.7734375 C364.61716169 174.96410573 356.29619165 175.57943019 346.10888672 175.50793457 C344.72144353 175.51255092 343.33400525 175.51890874 341.94657707 175.52684355 C338.15741304 175.54345953 334.36865473 175.53532611 330.57948971 175.52289867 C326.48397586 175.5138186 322.38852997 175.52783252 318.29302979 175.53881836 C310.27919871 175.55657671 302.26551774 175.55277559 294.25168085 175.5411678 C287.73692757 175.53212316 281.22221626 175.53091393 274.7074585 175.53526306 C273.77917925 175.53587599 272.8509 175.53648893 271.89449108 175.53712043 C270.00853172 175.53839937 268.12257237 175.53969623 266.23661304 175.5410108 C248.56448645 175.55240873 230.89244295 175.53931524 213.22033 175.51780933 C198.06676694 175.49993907 182.91332647 175.50304339 167.75976562 175.52148438 C150.14957474 175.54290499 132.53945662 175.55131017 114.92925453 175.53903532 C113.0503502 175.53776116 111.17144586 175.53650368 109.2925415 175.53526306 C108.36815745 175.53464596 107.4437734 175.53402886 106.49137771 175.53339306 C99.98672667 175.52994373 93.4821219 175.5357595 86.97747803 175.54518127 C79.04720388 175.55641587 71.11708804 175.55333055 63.18683195 175.5320583 C59.14300292 175.52156749 55.09943756 175.51739225 51.05561066 175.53065491 C47.34952203 175.54262578 43.64394001 175.53593983 39.93789697 175.5147447 C37.97138353 175.50820165 36.00483458 175.52117268 34.03835869 175.53497362 C25.20985055 175.45720564 18.17063433 174.07139738 10.9765625 168.7734375 C10.20054688 167.98195313 9.42453125 167.19046875 8.625 166.375 C7.83351563 165.59898437 7.04203125 164.82296875 6.2265625 164.0234375 C-0.20646182 155.28806763 -0.56713661 146.55472542 -0.45410156 136.00341797 C-0.45297117 134.51427745 -0.45361068 133.02513471 -0.45587158 131.53599548 C-0.45701221 127.5220539 -0.43360959 123.50859724 -0.40557575 119.49476767 C-0.38045253 115.28943479 -0.37821154 111.08408897 -0.37347412 106.87869263 C-0.36107626 98.9280346 -0.3282982 90.9775984 -0.28807616 83.02703774 C-0.24325873 73.97017764 -0.22134642 64.91330656 -0.20129442 55.85636306 C-0.15956246 37.23744994 -0.08927294 18.61874285 0 0 Z " fill="#FEFDFE" transform="translate(0,191)"/>
<path d="M0 0 C4.09110223 1.62859226 6.89544285 4.55081177 9.9375 7.625 C10.47165527 8.16334473 11.00581055 8.70168945 11.55615234 9.25634766 C17.58206429 15.45638679 22.28574126 21.85737484 23.3125 30.6875 C22.93327061 33.49379747 22.03393079 34.13779951 20 36 C19.90203125 35.3709375 19.8040625 34.741875 19.703125 34.09375 C17.69782625 22.61514339 12.90616465 16.42504938 5 8 C2.975226 5.68656169 0.98820672 3.34506434 -1 1 C-0.67 0.67 -0.34 0.34 0 0 Z " fill="#72AFFE" transform="translate(361,31)"/>
<path d="M0 0 C0.66 0.33 1.32 0.66 2 1 C0.79418283 4.61745151 -0.13553592 4.95114287 -3.3125 6.875 C-9.63075676 10.95387462 -13.32501554 15.99896411 -16 23 C-16.55632963 25.69888835 -16.80295635 28.24138897 -17 31 C-17.99 30.34 -18.98 29.68 -20 29 C-19.75461551 18.11385168 -15.72860611 12.12867562 -7.99609375 4.703125 C-5.49913727 2.57264941 -3.09337354 1.10477626 0 0 Z " fill="#49CBFE" transform="translate(20,1)"/>
<path d="M0 0 C4.17917653 0.51182223 6.10710028 2.76149845 8.984375 5.69140625 C9.67506073 6.38845924 9.67506073 6.38845924 10.37969971 7.09959412 C11.84367811 8.58031819 13.29686041 10.07114519 14.75 11.5625 C15.74279449 12.57034664 16.7362767 13.57751633 17.73046875 14.58398438 C20.16166473 17.04819461 22.58328868 19.52157329 25 22 C24.67 22.99 24.34 23.98 24 25 C23.34 25 22.68 25 22 25 C20.51953125 23.49609375 20.51953125 23.49609375 18.8125 21.4375 C16.42957693 18.62852415 14.00838939 15.95076599 11.375 13.375 C9.19116992 11.23523824 7.17251034 9.06473584 5.25 6.6875 C3.10030272 3.86327508 3.10030272 3.86327508 0 2 C0 1.34 0 0.68 0 0 Z " fill="#51C5FE" transform="translate(337,7)"/>
<path d="M0 0 C4.07376031 1.61010527 6.76507069 4.53822271 9.75 7.625 C10.25660156 8.140625 10.76320313 8.65625 11.28515625 9.1875 C12.52803902 10.45383339 13.76465276 11.7263144 15 13 C14.67 13.66 14.34 14.32 14 15 C9.92623969 13.38989473 7.23492931 10.46177729 4.25 7.375 C3.74339844 6.859375 3.23679687 6.34375 2.71484375 5.8125 C1.47196098 4.54616661 0.23534724 3.2736856 -1 2 C-0.67 1.34 -0.34 0.68 0 0 Z " fill="#63B9FE" transform="translate(361,31)"/>
<path d="M0 0 C0.99 0.33 1.98 0.66 3 1 C2.690625 1.99 2.38125 2.98 2.0625 4 C0.91566793 7.97731122 0.43287644 11.88767379 0 16 C-0.99 15.34 -1.98 14.68 -3 14 C-2.88512252 12.41590006 -2.75765492 10.83271037 -2.625 9.25 C-2.55539063 8.36828125 -2.48578125 7.4865625 -2.4140625 6.578125 C-2.00149945 4.00933618 -1.28839043 2.24158985 0 0 Z " fill="#56C1FE" transform="translate(3,16)"/>
</svg>
