<svg xmlns="http://www.w3.org/2000/svg" x="0px" y="0px" width="48" height="48" viewBox="0,0,256,256">
    <g fill="none" fill-rule="nonzero" stroke="none" stroke-width="1" stroke-linecap="butt" stroke-linejoin="miter" stroke-miterlimit="10" stroke-dasharray="" stroke-dashoffset="0" font-family="none" font-weight="none" font-size="none" text-anchor="none" style="mix-blend-mode: normal"><g transform="scale(5.33333,5.33333)"><path d="M42,37c0,2.762 -2.238,5 -5,5h-26c-2.761,0 -5,-2.238 -5,-5v-26c0,-2.762 2.239,-5 5,-5h26c2.762,0 5,2.238 5,5z" fill="#5c7cfa"></path><path d="M24.036,27.332h-5.389l-1.101,3.404c-0.029,0.13 -0.145,0.217 -0.275,0.203h-2.724c-0.159,0 -0.203,-0.087 -0.159,-0.261l4.665,-13.43c0.043,-0.145 0.087,-0.304 0.145,-0.478c0.058,-0.304 0.087,-0.623 0.087,-0.942c-0.014,-0.072 0.043,-0.145 0.116,-0.159h0.043h3.709c0.116,0 0.174,0.043 0.188,0.116l5.288,14.922c0.043,0.159 0,0.232 -0.145,0.232h-3.028c-0.101,0.014 -0.203,-0.058 -0.232,-0.159l-1.188,-3.448zM19.487,24.391h3.68c-0.087,-0.304 -0.203,-0.666 -0.333,-1.043c-0.13,-0.391 -0.261,-0.811 -0.391,-1.246c-0.145,-0.449 -0.275,-0.884 -0.42,-1.333c-0.145,-0.449 -0.275,-0.869 -0.391,-1.289c-0.116,-0.406 -0.217,-0.782 -0.319,-1.13h-0.029c-0.13,0.623 -0.29,1.246 -0.493,1.869c-0.217,0.695 -0.435,1.42 -0.666,2.144c-0.203,0.739 -0.421,1.42 -0.638,2.028z" fill="#fbfbfb"></path><path d="M31.859,18.205c-0.478,0.014 -0.942,-0.174 -1.289,-0.507c-0.333,-0.362 -0.507,-0.84 -0.493,-1.333c-0.014,-0.493 0.174,-0.956 0.522,-1.289c0.348,-0.333 0.811,-0.507 1.289,-0.507c0.565,0 1,0.174 1.318,0.507c0.319,0.348 0.493,0.811 0.478,1.289c0.014,0.493 -0.159,0.971 -0.507,1.333c-0.333,0.348 -0.825,0.536 -1.318,0.507zM30.236,30.78v-11.155c0,-0.145 0.058,-0.203 0.188,-0.203h2.868c0.13,0 0.188,0.072 0.188,0.203v11.155c0,0.159 -0.058,0.232 -0.188,0.232h-2.839c-0.144,0 -0.217,-0.087 -0.217,-0.232z" fill="#fbfbfb"></path></g></g>
</svg>